<?xml version="1.0" encoding="UTF-8"?>
<svg width="60px" height="41px" viewBox="0 0 60 41" version="1.1" xmlns="http://www.w3.org/2000/svg" xmlns:xlink="http://www.w3.org/1999/xlink">
    <title>Badges/Vans family white</title>
    <g id="Full-Page-Designs" stroke="none" stroke-width="1" fill="none" fill-rule="evenodd">
        <g id="Desktop-1024px-/PDP-Page" transform="translate(-520.000000, -633.000000)">
            <g id="a-family-logo" transform="translate(520.000000, 633.000000)">
                <g id="Group" transform="translate(0.000000, 11.964981)" fill="#1C1C1C">
                    <g transform="translate(10.476190, 1.595331)">
                        <path d="M8.76190476,8.15214008 C8.71428571,8.18404669 8.74603175,8.16809339 8.76190476,8.15214008 L8.76190476,8.15214008 Z" id="Path" fill-rule="nonzero"></path>
                        <path d="M26.7777778,9.50817121 C26.7460317,9.52412451 26.7777778,9.50817121 26.7777778,9.50817121 L26.7777778,9.50817121 Z" id="Path" fill-rule="nonzero"></path>
                        <path d="M19.9047619,5.91867704 C19.9047619,5.91867704 19.9047619,5.93463035 19.8888889,5.93463035 C19.9206349,5.91867704 19.9206349,5.91867704 19.9047619,5.91867704 Z" id="Path" fill-rule="nonzero"></path>
                        <path d="M31.7142857,11.6937743 C31.7142857,11.6937743 31.7142857,11.677821 31.7142857,11.6937743 L31.7142857,11.6937743 Z" id="Path" fill-rule="nonzero"></path>
                        <path d="M45.8571429,12.5552529 C45.1269841,12.9700389 44.3968254,13.3050584 43.6825397,13.7357977 C43.4761905,13.8634241 42.9047619,14.166537 42.2857143,14.6132296 C41.6031746,15.0918288 40.8730159,15.5863813 40.8412698,15.6342412 C40.7301587,15.7299611 40.5396825,15.8256809 40.5079365,15.7937743 C40.3174603,15.5544747 40.3809524,14.6770428 40.3968254,14.0867704 C40.4285714,13.2891051 40.5555556,12.4595331 40.7301587,11.6937743 C41.1269841,9.97081712 41.9047619,8.50311284 42.7460317,6.97159533 C43.1428571,6.23774319 43.5873016,5.55175097 44.0952381,4.89766537 C44.3174603,4.61050584 45.3968254,3.41400778 45.1904762,3.09494163 C45.031746,2.87159533 43.984127,2.52062257 43.7777778,2.60038911 C43.5873016,2.68015564 43.3333333,2.95136187 43.1904762,3.09494163 C42.7936508,3.4618677 42.2698413,3.98832685 41.5714286,4.84980545 C41.3968254,5.05719844 40.4761905,6.28560311 40.0952381,6.89182879 C39.8095238,7.3385214 39.2063492,8.24785992 38.968254,8.74241245 C38.9047619,8.88599222 38.0952381,10.3856031 37.7936508,10.9599222 C37.5555556,11.4385214 37.3492063,11.8373541 37.0793651,12.4914397 C36.8888889,12.9381323 36.5079365,14.3420233 36.4603175,14.4696498 C36.3809524,14.6770428 36.2380952,15.1875486 36.0952381,15.3789883 C35.8253968,15.2035019 35.8412698,14.740856 35.8412698,14.4536965 C35.8412698,14.3579767 35.8412698,13.4007782 36.0952381,12.4914397 C36.3333333,11.5661479 36.6825397,10.8642023 36.7460317,10.7365759 C36.8888889,10.4494163 37.1111111,9.97081712 37.2539683,9.69961089 C37.9206349,8.51906615 38.5714286,7.21089494 39.0952381,5.91867704 C39.4126984,5.13696498 39.968254,4.38715953 40.0634921,3.52568093 C40.1111111,3.09494163 40.047619,3.0311284 39.6825397,2.85564202 C39.4603175,2.75992218 39.0793651,2.52062257 38.8253968,2.56848249 C38.2539683,2.66420233 37.8571429,3.79688716 37.6031746,4.307393 C36.9047619,5.32840467 36.2698413,6.44513619 35.7460317,7.48210117 C35.6666667,7.5459144 35.6666667,7.72140078 35.5873016,7.80116732 C35.4603175,8.05642023 35.3809524,8.35953307 35.2539683,8.58287938 C34.9365079,9.20505837 34.4920635,9.14124514 33.9206349,9.46031128 C33.5238095,9.68365759 33.0793651,10.0984436 32.7142857,10.433463 C32.5873016,10.5451362 31.6984127,11.5661479 31.7142857,11.5661479 C31.5238095,11.7575875 30.7777778,12.8902724 30.6825397,12.8105058 C30.9047619,11.7575875 31.3333333,10.8003891 31.6984127,9.77937743 C31.9365079,9.12529183 32.2222222,8.48715953 32.5079365,7.86498054 C32.6507937,7.5459144 32.8412698,7.22684825 33,6.92373541 C33.0793651,6.76420233 33.1587302,6.60466926 33.2380952,6.42918288 C33.2698413,6.38132296 34.1746032,4.81789883 34.6190476,4.11595331 C34.8253968,3.79688716 35.031746,3.4618677 35.2380952,3.12684825 C35.3015873,3.0151751 35.5714286,2.5844358 35.5079365,2.66420233 C35.8253968,2.20155642 36.1904762,1.56342412 36.2857143,1.00505837 C36.3492063,0.638132296 36.2539683,0.574319066 36.015873,0.36692607 C35.8095238,0.191439689 35.5238095,-0.0638132296 35.2539683,0.0638132296 C35.0793651,0.143579767 34.6666667,0.717898833 34.5714286,0.861478599 C33.6825397,2.08988327 30.984127,5.98249027 30.7142857,6.62062257 C30.3174603,7.52996109 29.6825397,8.02451362 29.015873,8.74241245 C28.5238095,9.25291829 28.0634921,9.79533074 27.5873016,10.3377432 C27.6190476,10.2898833 27.3333333,10.6249027 27.2380952,10.7365759 C27.047619,10.9599222 26.0634921,12.5871595 25.9047619,12.5552529 C25.9206349,12.5552529 26.3968254,10.7046693 26.4285714,10.5929961 C26.7301587,9.38054475 27.2857143,8.24785992 27.7777778,7.09922179 C28.015873,6.55680934 28.3174603,6.0463035 28.5873016,5.51984436 C28.7460317,5.20077821 29.4285714,4.11595331 29.3015873,3.73307393 C29.2063492,3.47782101 28.4920635,3.36614786 28.2063492,3.33424125 C27.8412698,3.28638132 27.6666667,3.42996109 27.4920635,3.74902724 C26.047619,6.38132296 24.1587302,8.66264591 22.6825397,11.2789883 C22.3174603,11.9171206 22.0634921,12.6669261 21.7142857,13.336965 C21.5079365,13.751751 21.3174603,14.1824903 21.1428571,14.6291829 C21.0634921,14.8206226 20.9365079,15.6342412 20.7301587,15.7459144 C20.6666667,15.777821 20.6349206,14.4377432 20.6349206,14.37393 C20.6666667,13.6081712 20.7460317,12.8105058 20.8730159,12.0447471 C21,11.2470817 21.1269841,10.4175097 21.3174603,9.63579767 C21.5714286,8.56692607 21.8888889,7.5618677 22.2222222,6.50894942 C22.4285714,5.85486381 22.6190476,5.20077821 22.7777778,4.54669261 C22.8571429,4.22762646 23.031746,3.2385214 22.8095238,3.07898833 C22.6984127,2.99922179 22.1269841,3.06303502 22,3.12684825 C21.8730159,3.20661479 21.7936508,3.4459144 21.6507937,3.54163424 C21.6031746,3.57354086 21.3968254,3.60544747 21.4126984,3.58949416 C21.0634921,3.8766537 20.6507937,4.64241245 20.4126984,5.02529183 C20.2222222,5.31245136 20.031746,5.6155642 19.8571429,5.90272374 C19.8571429,5.90272374 19.8571429,5.90272374 19.8412698,5.91867704 C19.031746,7.25875486 18.3015873,8.6307393 17.5714286,10.0505837 C17.3015873,9.95486381 18.0793651,7.43424125 18.2063492,6.89182879 C18.3650794,6.14202335 18.5555556,5.3922179 18.6507937,4.62645914 C18.6984127,4.25953307 18.8888889,3.11089494 18.4444444,2.95136187 C18.1746032,2.85564202 17.3650794,3.36614786 17.1904762,3.55758755 C16.7301587,4.05214008 16.3492063,4.61050584 15.9365079,5.13696498 C15.5238095,5.64747082 13.7777778,8.4233463 13.6666667,8.59883268 C13.3650794,9.09338521 13.1746032,9.63579767 12.8412698,10.0984436 C12.6031746,9.84319066 13.7301587,7.80116732 13.8730159,7.46614786 C14.1111111,6.95564202 14.2857143,6.57276265 14.4920635,6.07821012 C14.7619048,5.44007782 15.0793651,4.81789883 15.3174603,4.14785992 C15.4126984,3.8766537 15.5396825,3.52568093 15.4126984,3.42996109 C15.3015873,3.33424125 15.0793651,3.33424125 14.8095238,3.20661479 C14.6507937,3.12684825 14.5079365,2.96731518 14.4285714,2.93540856 C13.968254,2.42490272 13.3174603,3.70116732 13.1587302,4.08404669 C13.1269841,4.17976654 13.1111111,4.41906615 13.0634921,4.54669261 C13,4.70622568 12.8888889,4.88171206 12.8095238,5.04124514 C12.6507937,5.36031128 12.4761905,5.66342412 12.3174603,5.96653696 C11.4920635,7.5618677 10.8730159,9.20505837 9.93650794,10.7046693 C9.17460317,11.9171206 8.49206349,12.9859922 7.85714286,14.2303502 C7.76190476,14.4058366 6.85714286,16.0809339 6.77777778,16.0649805 C6.52380952,16.0011673 6.63492063,15.2673152 6.63492063,15.0918288 C6.63492063,14.5015564 6.65079365,13.8474708 6.79365079,13.2731518 C6.80952381,13.2412451 6.96825397,12.507393 7.22222222,11.8054475 C7.49206349,11.0715953 8.41269841,8.79027237 8.71428571,8.13618677 C9.06349206,7.24280156 9.46031746,6.36536965 9.84126984,5.48793774 C9.96825397,5.21673152 10.4126984,4.35525292 10.2539683,4.08404669 C10.1587302,3.92451362 9.47619048,3.63735409 9.28571429,3.63735409 C8.88888889,3.60544747 8.82539683,3.92451362 8.63492063,4.19571984 C8.34920635,4.59455253 7.74603175,5.23268482 7.66666667,5.74319066 C7.61904762,5.74319066 7.3968254,4.81789883 7.36507937,4.7540856 C7.14285714,4.307393 6.76190476,3.94046693 6.33333333,3.68521401 C5.26984127,3.06303502 4.01587302,4.11595331 3.31746032,4.92957198 C2.14285714,6.30155642 1.47619048,8.16809339 0.857142857,9.89105058 C0.761904762,10.3856031 0.285714286,11.5980545 0.158730159,13.1136187 C0.0952380952,13.9750973 0.111111111,15.3311284 0.603174603,16.2564202 C0.984126984,16.9743191 1.88888889,17.4050584 1.88888889,17.4050584 C1.88888889,17.4050584 2.44444444,17.4529183 2.71428571,17.3731518 C3.58730159,17.0700389 4.31746032,15.6980545 4.73015873,14.9163424 C4.96825397,15.0120623 4.85714286,15.5066148 4.9047619,15.6980545 C4.98412698,16.0649805 5.19047619,16.4478599 5.44444444,16.7350195 C5.6984127,17.0062257 6,17.1817121 6.3968254,17.1019455 C6.87301587,17.0062257 7.19047619,16.8626459 7.41269841,16.4797665 C7.76190476,15.8735409 9.47619048,12.2361868 9.9047619,12.2840467 C9.23809524,14.1505837 10.1746032,16.0011673 11.3174603,17.436965 C11.3650794,16.7509728 11.2380952,16.0809339 11.3174603,15.3949416 C11.4920635,13.959144 12.2857143,12.5552529 13.047619,11.3428016 C14.031746,9.76342412 15.1111111,8.32762646 15.968254,6.71634241 C15.6349206,7.992607 15.3174603,9.33268482 15.1746032,10.640856 C15.047619,11.7416342 14.7301587,12.7945525 14.7777778,13.911284 C14.8253968,14.8684825 15.015873,15.8256809 15.8571429,16.3840467 C15.968254,16.4478599 16.7619048,16.9902724 16.8095238,16.8466926 C16.6031746,16.2883268 16.3015873,15.8894942 16.4126984,15.2513619 C16.5714286,14.1984436 16.9365079,13.0657588 17.3809524,12.092607 C17.7936508,11.1832685 18.3015873,10.3217899 18.6507937,9.39649805 C19,8.45525292 19.5555556,7.38638132 20.1587302,6.58871595 C20.3492063,6.95564202 19.4920635,9.17315175 19.3968254,9.77937743 C19.3650794,9.9229572 18.8730159,13.0338521 18.8253968,13.4486381 C18.7460317,14.118677 18.8253968,14.8525292 18.8730159,15.5225681 L19.0634921,16.2245136 C19.2063492,16.7031128 19.8253968,16.9743191 20.2698413,16.9743191 C20.7936508,16.9743191 21.1904762,16.3042802 21.4126984,15.8575875 C21.7142857,15.2354086 21.8571429,14.533463 22.2063492,13.9272374 C22.2380952,13.8634241 23.047619,12.2680934 23.1746032,12.0128405 C23.2857143,11.7894942 23.3968254,11.5342412 23.5396825,11.3268482 C23.7142857,11.0715953 23.8095238,10.8163424 23.984127,10.5770428 C24.0793651,10.433463 24.2857143,10.0505837 24.3968254,9.93891051 C24.5396825,10.0824903 24.1904762,10.9280156 24.1428571,11.1035019 C24.015873,11.5501946 23.8888889,11.9968872 23.7619048,12.4435798 C23.5873016,13.0657588 23.2539683,13.7038911 23.3174603,14.3420233 C23.3650794,14.8844358 23.5238095,15.4906615 23.8730159,15.9054475 C24.047619,16.1128405 25.2380952,17.229572 25.5238095,16.9902724 C25.5714286,16.9424125 25.5238095,16.3521401 25.5238095,16.2085603 C25.5555556,15.8256809 25.6507937,15.4428016 25.7619048,15.0599222 C25.984127,14.2463035 26.1428571,13.5603113 26.5873016,12.8583658 C26.8095238,12.507393 29.3333333,9.17315175 29.5238095,9.30077821 C29.6349206,9.39649805 28.7619048,11.5821012 28.6825397,11.8692607 C28.4603175,12.6988327 28.1587302,13.6081712 28.1269841,14.4536965 C28.1111111,14.9163424 28.4285714,15.2513619 28.7619048,15.5385214 C29.1269841,15.8735409 29.5555556,16.0809339 29.9206349,16.3840467 C29.968254,16.4319066 30.4603175,16.8466926 30.4761905,16.6712062 C30.4920635,16.3840467 30.6349206,16.2245136 30.6825397,15.9214008 C30.7460317,15.5863813 30.6031746,15.3151751 30.7142857,14.9801556 C30.7936508,14.7249027 31.015873,14.4536965 31.1587302,14.2143969 C31.2222222,14.1027237 32.3174603,12.714786 32.7460317,12.3 C32.8888889,12.1723735 34.1428571,10.9758755 34.2063492,11.0077821 C34.2222222,11.1035019 34.1111111,11.3268482 34.0793651,11.4544747 C34.031746,11.7256809 34.0793651,11.9171206 34.1269841,12.1883268 C34.1904762,12.6190661 34.2698413,12.9381323 34.4444444,13.3210117 C34.6825397,13.8474708 34.984127,14.3101167 35.3492063,14.788716 C35.5555556,15.0758755 36.031746,16.0809339 36.4920635,15.4108949 C36.952381,14.7249027 37.0634921,14.0548638 37.3809524,13.4007782 C37.7619048,12.6031128 38.015873,11.5501946 38.5555556,10.7844358 C38.6190476,10.848249 38.3333333,11.8214008 38.3015873,11.9490272 C38.2222222,12.4116732 38.1269841,12.8743191 38.0952381,13.3529183 C38.015873,14.2782101 37.968254,14.8684825 38.1587302,15.8097276 C38.2222222,16.1766537 38.2380952,16.3361868 38.4126984,17.0062257 C38.5555556,17.5645914 38.6031746,17.4210117 38.3492063,17.8038911 C37.7777778,18.6972763 37.4126984,19.5108949 36.7301587,20.914786 C36.3333333,21.744358 35.8888889,22.8132296 35.7460317,24.0097276 C35.6507937,24.7914397 35.7142857,25.5891051 36.3809524,26.6420233 C37.1587302,27.8863813 39.0634921,27.248249 39.7777778,26.3708171 C41.2222222,24.6 41.7142857,21.951751 41.4285714,19.7182879 C41.3015873,18.7291829 41.1428571,18.1548638 40.984127,17.1817121 C40.8095238,16.192607 41.4761905,15.9054475 43.3333333,14.6770428 C43.7777778,14.3898833 44.1269841,14.1984436 44.6031746,13.9431907 C45.031746,13.7038911 45.1746032,13.6400778 45.5238095,13.4486381 C45.7460317,13.3210117 45.968254,13.1774319 46.1904762,13.0498054 C46.4444444,12.8902724 49.5238095,11.0237354 49.4603175,10.9599222 C48.3174603,11.263035 46.9365079,11.9490272 45.8571429,12.5552529 Z M8.76190476,8.15214008 C8.74603175,8.16809339 8.71428571,8.18404669 8.76190476,8.15214008 L8.76190476,8.15214008 Z M6.12698413,9.33268482 C6,9.68365759 5.49206349,11.2311284 5.3015873,11.6299611 C5.14285714,11.9809339 4.0952381,14.0548638 3.68253968,14.6929961 C3.47619048,15.0280156 3.28571429,15.3949416 3.04761905,15.7140078 C2.65079365,16.2404669 2.33333333,15.985214 2.19047619,15.2992218 C2.01587302,14.3579767 2.22222222,13.129572 2.44444444,12.2202335 C2.57142857,11.7416342 2.71428571,11.263035 2.84126984,10.7684825 C2.88888889,10.5929961 3.22222222,9.18910506 3.85714286,7.88093385 C4.41269841,6.73229572 5.11111111,5.66342412 5.44444444,5.40817121 C6.41269841,4.67431907 6.76190476,5.48793774 6.80952381,6.28560311 C6.88888889,7.01945525 6.22222222,9.09338521 6.12698413,9.33268482 Z M39.0793651,22.1272374 C39.015873,23.4832685 38.4444444,24.6478599 38.1904762,24.9828794 C37.8571429,25.429572 37.5873016,25.7805447 37.1111111,25.7167315 C36.7619048,25.6688716 36.5555556,25.0785992 36.5238095,24.6957198 C36.4920635,24.1214008 36.5238095,23.8821012 36.6349206,23.4035019 C36.7460317,22.9249027 36.8571429,22.6058366 36.984127,22.2548638 C37.4285714,21.0424125 38.015873,19.6066148 38.6984127,18.5696498 C38.6825397,18.7610895 39.1428571,20.7712062 39.0793651,22.1272374 Z" id="Shape"></path>
                    </g>
                    <path d="M32.7936508,22.318677 C30.1269841,21.329572 26.2380952,20.7871595 23.5238095,21.8241245 C23.1111111,21.9836576 22.4126984,22.4782101 22.8730159,23.0206226 C23.1587302,23.355642 23.8253968,23.1322957 24.1904762,23.0525292 C25,22.8610895 25.8412698,22.6058366 26.6190476,22.4622568 C28.2063492,22.1910506 29.7142857,22.2389105 31.3492063,22.366537 C31.7301587,22.3984436 32.0952381,22.52607 32.4603175,22.6217899 C32.7460317,22.6856031 33.6190476,22.6217899 32.7936508,22.318677 Z" id="Path"></path>
                    <path d="M42,0.191439689 C41.952381,-0.111673152 41.3809524,0.0638132296 41.1746032,0.175486381 C40.8253968,0.350972763 40.6666667,0.781712062 40.4444444,1.0848249 C40.3015873,1.2922179 40.2063492,1.46770428 40.0793651,1.70700389 C40.047619,1.77081712 39.7936508,2.28132296 39.6349206,2.74396887 C39.5396825,3.04708171 39.5238095,3.35019455 39.5238095,3.41400778 C39.5238095,3.60544747 39.4126984,3.63735409 39.5714286,3.71712062 C39.7142857,3.78093385 39.7460317,3.6692607 39.8412698,3.58949416 C40.031746,3.39805447 40.968254,2.36108949 41.3174603,1.89844358 C42.047619,0.941245136 42.0634921,0.350972763 42,0.191439689 Z" id="Path"></path>
                    <path d="M17.6666667,18.1070039 C17.6507937,18.1229572 17.6349206,18.1389105 17.6349206,18.1708171 C17.6507937,18.1548638 17.6666667,18.1389105 17.6666667,18.1070039 Z" id="Path" fill-rule="nonzero"></path>
                    <path d="M20.1904762,7.46614786 C20.1746032,7.48210117 20.1746032,7.49805447 20.1587302,7.52996109 C20.1904762,7.51400778 20.2063492,7.49805447 20.1904762,7.46614786 Z" id="Path" fill-rule="nonzero"></path>
                    <path d="M29.3968254,22.2070039 C29.3968254,22.1910506 29.3968254,22.1910506 29.3968254,22.2070039 C29.3968254,22.1910506 29.3968254,22.1910506 29.3968254,22.2070039 L29.3968254,22.2070039 Z" id="Path" fill-rule="nonzero"></path>
                    <path d="M13.8888889,2.3770428 C13.8888889,2.10583658 13.9365079,1.41984436 13.5238095,0.893385214 C13.2063492,0.446692607 12.5714286,0.159533074 12.031746,0.143579767 L12.031746,0.143579767 C12,0.143579767 11.2698413,0.143579767 10.4920635,0.350972763 C9.55555556,0.590272374 8.50793651,1.05291829 8.33333333,1.13268482 C7.85714286,1.35603113 7.6984127,1.14863813 7.25396825,0.973151751 C6.85714286,0.829571984 6.77777778,1.03696498 6.57142857,1.34007782 C6.41269841,1.56342412 6.20634921,1.75486381 6.03174603,1.97821012 C5.66666667,2.44085603 5.38095238,2.96731518 5.03174603,3.4459144 C4.76190476,3.81284047 4.47619048,4.24357977 4.26984127,4.65836576 C4.11111111,4.97743191 3.63492063,6.14202335 3.47619048,6.41322957 C3.34920635,6.62062257 1.76190476,10.7046693 1.57142857,11.1194553 C1.47619048,11.3428016 0.904761905,12.6031128 0.587301587,13.7357977 C0.333333333,14.6291829 0.0317460317,16.9105058 0.206349206,17.8996109 C0.349206349,18.7132296 1.19047619,20.1171206 1.41269841,20.3564202 C1.46031746,20.4042802 1.79365079,20.7871595 2.07936508,21.0583658 C2.49206349,21.4571984 3,21.7284047 3.0952381,21.6645914 C2.93650794,21.4891051 2.46031746,20.8031128 2.33333333,20.6435798 C2.15873016,20.4202335 1.93650794,19.7023346 1.95238095,18.9844358 C1.96825397,18.3143969 2.20634921,17.6603113 2.26984127,17.4050584 C2.36507937,16.9583658 2.73015873,15.0918288 2.88888889,14.6291829 C2.93650794,14.5175097 3.3968254,13.4645914 3.3968254,13.4486381 C3.80952381,13.3688716 5.92063492,11.6937743 6.57142857,11.263035 C7.17460317,10.848249 9.01587302,9.54007782 9.12698413,9.52412451 C9.3015873,9.50817121 9.41269841,9.65175097 9.3968254,9.63579767 C9.47619048,9.63579767 9.76190476,10.3536965 9.82539683,10.433463 C10.2380952,10.1941634 9.77777778,9.30077821 9.63492063,9.01361868 C9.26984127,8.31167315 8.71428571,8.12023346 7.96825397,8.18404669 C7.34920635,8.24785992 6.73015873,8.56692607 6.20634921,8.87003891 C5.6984127,9.15719844 5.22222222,9.69961089 4.65079365,9.84319066 C5.06349206,8.64669261 5.66666667,7.46614786 6.22222222,6.31750973 C6.47619048,5.80700389 6.76190476,5.28054475 7.01587302,4.78599222 C7.12698413,4.56264591 7.34920635,4.38715953 7.53968254,4.24357977 C7.68253968,4.13190661 8.12698413,3.892607 8.12698413,3.892607 C8.38095238,3.74902724 12.7142857,1.9463035 13.1269841,2.20155642 C13.5555556,2.47276265 13.2380952,3.19066148 13.2063492,3.57354086 C13.1587302,4.1 13.4126984,3.90856031 13.5396825,3.55758755 C13.6507937,3.17470817 13.9047619,2.72801556 13.8888889,2.3770428 Z" id="Path"></path>
                </g>
                <g id="Group" transform="translate(11.587302, 0.000000)">
                    <path d="M1.19047619,3.22256809 C2.07936508,5.72723735 2.98412698,8.24785992 3.87301587,10.7525292 C3.93650794,10.9439689 3.9047619,10.9280156 4.12698413,10.9280156 C4.73015873,10.9280156 5.31746032,10.9280156 5.92063492,10.9280156 C6.28571429,10.9280156 6.19047619,10.9918288 6.31746032,10.6568093 C7.42857143,7.84902724 8.52380952,5.04124514 9.63492063,2.23346304 C9.74603175,1.9463035 9.68253968,1.99416342 9.98412698,1.99416342 C17.0793651,1.99416342 24.1587302,1.99416342 31.2539683,1.99416342 C31.3015873,1.99416342 31.3650794,1.99416342 31.4126984,1.99416342 C31.5555556,1.99416342 31.5555556,1.99416342 31.5714286,1.85058366 C31.6031746,1.48365759 31.6190476,1.11673152 31.6666667,0.749805447 C31.6984127,0.542412451 31.6825397,0.319066148 31.7460317,0.111673152 C23.8412698,0.111673152 15.9365079,0.111673152 8.03174603,0.111673152 C7.96825397,0.159533074 7.93650794,0.239299611 7.9047619,0.319066148 C7.76190476,0.654085603 7.63492063,1.00505837 7.50793651,1.34007782 C6.79365079,3.17470817 6.06349206,5.00933852 5.34920635,6.84396887 C5.28571429,7.00350195 5.23809524,7.16303502 5.14285714,7.3385214 C4.88888889,6.66848249 4.68253968,6.03035019 4.44444444,5.3922179 C3.92063492,3.90856031 3.3968254,2.44085603 2.87301587,0.957198444 C2.77777778,0.670038911 2.6984127,0.36692607 2.53968254,0.111673152 C1.73015873,0.111673152 0.920634921,0.111673152 0.0952380952,0.111673152 C0.0793650794,0.175486381 0.111111111,0.223346304 0.126984127,0.271206226 C0.492063492,1.24435798 0.841269841,2.23346304 1.19047619,3.22256809 Z" id="Path" fill="#1C1C1C"></path>
                    <path d="M23.4285714,3.28638132 C22.8730159,3.28638132 22.3174603,3.28638132 21.7619048,3.28638132 C21.7301587,3.28638132 21.6984127,3.28638132 21.6507937,3.28638132 C21.5873016,3.28638132 21.5555556,3.30233463 21.5555556,3.36614786 C21.5555556,3.41400778 21.5555556,3.4618677 21.5555556,3.50972763 C21.5555556,4.72217899 21.5555556,5.95058366 21.5555556,7.16303502 C21.5555556,7.22684825 21.5714286,7.29066148 21.5238095,7.37042802 C21.4761905,7.29066148 21.4444444,7.24280156 21.3968254,7.17898833 C20.6190476,5.93463035 19.8412698,4.69027237 19.0634921,3.42996109 C18.984127,3.30233463 18.9047619,3.25447471 18.7619048,3.27042802 C18.2380952,3.28638132 17.7301587,3.27042802 17.2063492,3.27042802 C16.9365079,3.27042802 16.968254,3.2385214 16.968254,3.49377432 C16.968254,5.88677043 16.968254,8.27976654 16.968254,10.6727626 C16.968254,10.7046693 16.968254,10.7365759 16.968254,10.7684825 C16.952381,10.8801556 17,10.9120623 17.1111111,10.9120623 C17.6825397,10.9120623 18.2380952,10.9120623 18.8095238,10.9120623 C18.952381,10.9120623 18.952381,10.9120623 18.952381,10.7684825 C18.952381,10.3058366 18.952381,9.82723735 18.952381,9.36459144 C18.952381,8.6307393 18.952381,7.88093385 18.952381,7.1311284 C19.031746,7.14708171 19.047619,7.19494163 19.0793651,7.22684825 C19.3809524,7.62568093 19.6825397,8.04046693 19.984127,8.43929961 C20.5555556,9.22101167 21.1269841,9.98677043 21.6984127,10.7684825 C21.7777778,10.8801556 21.8571429,10.9280156 21.984127,10.9120623 C22.1746032,10.8961089 22.3650794,10.9120623 22.5555556,10.9120623 C22.8571429,10.9120623 23.1587302,10.9120623 23.4603175,10.9120623 C23.5555556,10.9120623 23.5873016,10.8801556 23.5873016,10.8003891 C23.5873016,10.7525292 23.5873016,10.7046693 23.5873016,10.6568093 C23.5873016,8.26381323 23.5873016,5.87081712 23.5873016,3.47782101 C23.6190476,3.28638132 23.6507937,3.28638132 23.4285714,3.28638132 Z" id="Path" fill="#000000" fill-rule="nonzero"></path>
                    <path d="M29.3015873,10.8642023 C30.2698413,10.6568093 31.1269841,9.84319066 31.1428571,8.59883268 C31.1587302,7.57782101 30.5873016,6.74824903 29.6190476,6.46108949 C29.3650794,6.38132296 29.0952381,6.31750973 28.8412698,6.2536965 C28.4285714,6.14202335 28.015873,6.03035019 27.6031746,5.91867704 C27.3968254,5.87081712 27.2063492,5.79105058 27.047619,5.64747082 C26.7301587,5.37626459 26.7619048,4.97743191 27.1269841,4.78599222 C27.2380952,4.72217899 27.3492063,4.69027237 27.4761905,4.67431907 C27.7777778,4.62645914 28.0793651,4.64241245 28.3809524,4.69027237 C28.7619048,4.7540856 29.047619,4.94552529 29.1904762,5.32840467 C29.2380952,5.44007782 29.3015873,5.45603113 29.4126984,5.45603113 C29.9206349,5.45603113 30.4285714,5.45603113 30.9365079,5.45603113 C30.984127,5.45603113 31.031746,5.47198444 31.0793651,5.42412451 C31.0793651,5.1688716 30.984127,4.92957198 30.8730159,4.70622568 C30.5079365,3.98832685 29.9047619,3.55758755 29.1587302,3.31828794 C28.5873016,3.12684825 27.984127,3.09494163 27.3809524,3.14280156 C26.6984127,3.19066148 26.0793651,3.42996109 25.5555556,3.8766537 C25.0952381,4.25953307 24.8412698,4.7540856 24.8253968,5.36031128 C24.8095238,6.18988327 25.1904762,6.79610895 25.9206349,7.16303502 C26.3015873,7.35447471 26.6984127,7.46614786 27.1111111,7.57782101 C27.5714286,7.70544747 28.047619,7.83307393 28.5079365,7.96070039 C28.7142857,8.02451362 28.9047619,8.08832685 29.0634921,8.21595331 C29.3809524,8.47120623 29.3809524,8.93385214 29.047619,9.18910506 C28.9365079,9.2688716 28.8095238,9.33268482 28.6825397,9.36459144 C28.2063492,9.4922179 27.7301587,9.47626459 27.2539683,9.33268482 C26.9047619,9.23696498 26.6825397,8.99766537 26.5396825,8.66264591 C26.4761905,8.48715953 26.4761905,8.48715953 26.3015873,8.48715953 C25.7777778,8.48715953 25.2539683,8.48715953 24.7301587,8.48715953 C24.6666667,8.48715953 24.6031746,8.47120623 24.5396825,8.51906615 C24.5396825,8.8540856 24.6349206,9.18910506 24.7936508,9.4922179 C25.1587302,10.1782101 25.7301587,10.6089494 26.4603175,10.8322957 C27.4126984,11.1035019 28.3492063,11.0715953 29.3015873,10.8642023 Z" id="Path" fill="#000000" fill-rule="nonzero"></path>
                    <path d="M13.4761905,3.42996109 C13.4444444,3.33424125 13.4126984,3.27042802 13.3015873,3.27042802 C12.6031746,3.27042802 11.9047619,3.27042802 11.2222222,3.27042802 C11.1428571,3.27042802 11.0952381,3.28638132 11.0634921,3.36614786 C11.047619,3.41400778 11.015873,3.4618677 11,3.52568093 C10.0634921,5.91867704 9.12698413,8.32762646 8.17460317,10.7206226 C8.15873016,10.7684825 8.11111111,10.8322957 8.12698413,10.9280156 C8.80952381,10.9280156 9.49206349,10.9280156 10.1746032,10.9280156 C10.2698413,10.9280156 10.3015873,10.8801556 10.3333333,10.8003891 C10.4444444,10.481323 10.5555556,10.1782101 10.6507937,9.85914397 C10.6825397,9.76342412 10.7301587,9.73151751 10.8253968,9.73151751 C11.7142857,9.73151751 12.5873016,9.73151751 13.4761905,9.73151751 C13.5714286,9.73151751 13.6190476,9.77937743 13.6507937,9.85914397 C13.7460317,10.1622568 13.8571429,10.4653696 13.968254,10.7525292 C14.031746,10.9120623 14.031746,10.9120623 14.2063492,10.9120623 C14.8095238,10.9120623 15.4126984,10.9120623 16.031746,10.9120623 C16.0793651,10.9120623 16.1428571,10.9439689 16.1904762,10.8801556 C16.1746032,10.8322957 16.1587302,10.7844358 16.1428571,10.7206226 C15.5238095,8.98171206 14.8888889,7.25875486 14.2698413,5.51984436 C13.984127,4.83385214 13.7301587,4.13190661 13.4761905,3.42996109 Z M11.3333333,8.32762646 C11.6190476,7.49805447 11.8888889,6.6844358 12.1587302,5.87081712 C12.1746032,5.87081712 12.1746032,5.87081712 12.1904762,5.85486381 C12.4603175,6.66848249 12.7301587,7.48210117 13,8.31167315 C12.4285714,8.32762646 11.8888889,8.32762646 11.3333333,8.32762646 Z" id="Shape" fill="#000000" fill-rule="nonzero"></path>
                    <path d="M31.2539683,10.6328794 C31.2539683,10.9142957 31.4739683,11.1354086 31.7539683,11.1354086 C32.0339683,11.1354086 32.2539683,10.9142957 32.2539683,10.6328794 C32.2539683,10.351463 32.0339683,10.1303502 31.7539683,10.1303502 C31.4739683,10.1303502 31.2539683,10.3715642 31.2539683,10.6328794 Z M32.1939683,10.6328794 C32.1939683,10.8740934 32.0139683,11.0751051 31.7539683,11.0751051 C31.5139683,11.0751051 31.3139683,10.8740934 31.3139683,10.6328794 C31.3139683,10.3916654 31.4939683,10.1906537 31.7539683,10.1906537 C31.9939683,10.1906537 32.1939683,10.3916654 32.1939683,10.6328794 Z" id="Shape" fill="#000000" fill-rule="nonzero"></path>
                    <path d="M31.4920635,11.3268482 L31.7420635,11.3268482 L31.7420635,11.0175995 L31.9503968,11.0175995 L32.2003968,11.3268482 L32.4920635,11.3268482 L32.2420635,10.9789434 C32.3670635,10.9402873 32.4920635,10.8243191 32.4920635,10.6696947 C32.4920635,10.4764142 32.3253968,10.3217899 32.0753968,10.3217899 L31.5753968,10.3217899 L31.5753968,11.3268482 L31.4920635,11.3268482 Z M31.7003968,10.4764142 L31.9503968,10.4764142 C32.0753968,10.4764142 32.1587302,10.5150703 32.1587302,10.6310386 C32.1587302,10.7083508 32.0753968,10.785663 31.9503968,10.785663 L31.7003968,10.785663 L31.7003968,10.4764142 Z" id="Shape" fill="#000000" fill-rule="nonzero"></path>
                </g>
            </g>
        </g>
    </g>
</svg>